<svg xmlns="http://www.w3.org/2000/svg" xmlns:xlink="http://www.w3.org/1999/xlink" fill="none" version="1.1" width="136" height="40" viewBox="0 0 136 40"><defs><linearGradient x1="0.001773056574165821" y1="0.5018091797828674" x2="0.9999733567237854" y2="0.5018091797828674" id="master_svg0_5_44160"><stop offset="0%" stop-color="#81171C" stop-opacity="1"/><stop offset="19.07999962568283%" stop-color="#95131A" stop-opacity="1"/><stop offset="72.18999862670898%" stop-color="#CA0917" stop-opacity="1"/><stop offset="98.18000197410583%" stop-color="#DE0515" stop-opacity="1"/></linearGradient></defs><g><g><g><g><g><path d="M34.20923614501953,21.44839739578247L40.96763614501953,21.44839739578247L41.05107614501953,18.47330739578247L34.626421145019535,18.47330739578247L34.626421145019535,16.67259739578247L41.05107614501953,16.67259739578247L41.05107614501953,15.419927395782471L34.626421145019535,15.419927395782471L34.709857145019534,13.61921739578247L51.14693614501953,13.61921739578247L51.14693614501953,15.419927395782471L44.221736145019534,15.419927395782471L44.221736145019534,16.67259739578247L51.23043614501953,16.67259739578247L51.23043614501953,18.47330739578247L44.13824614501953,18.47330739578247L44.13824614501953,21.44839739578247L51.56413614501953,21.44839739578247L51.56413614501953,23.09252739578247L34.20923614501953,23.09252739578247L34.20923614501953,21.44839739578247Z" fill="#003D95" fill-opacity="1"/></g></g><g><g><path d="M42.88665687133789,11.192171840851307Q42.38603687133789,11.192171840851307,41.71853687133789,11.583631840851307L38.96511687133789,13.071171840851306L34.29263687133789,13.071171840851306L40.13323687133789,9.782917840851306Q41.71853687133789,9.078291840851307,42.80321687133789,9.078291840851307Q44.05477687133789,9.078291840851307,45.056036871337895,9.626334840851307L51.23033687133789,13.149471840851307L46.72473687133789,13.149471840851307L44.13821687133789,11.661921840851306C44.22164687133789,11.583631840851307,43.30384687133789,11.192171840851307,42.88665687133789,11.192171840851307Z" fill="#003D95" fill-opacity="1"/></g></g><g><g><path d="M36.12826156616211,18.78647804260254L38.71481156616211,18.78647804260254L39.38231156616211,21.05693804260254L36.79575756616211,21.05693804260254L36.12826156616211,18.78647804260254Z" fill="#003D95" fill-opacity="1"/></g></g><g><g><path d="M58.82312910888672,9.626335L63.82935910888672,9.626335L63.82935910888672,11.11388L61.659999108886716,11.11388L61.659999108886716,11.81851L64.07966910888672,11.81851L64.07966910888672,13.22776L61.57655910888672,13.22776L64.49685910888672,15.7331L61.659999108886716,15.7331L60.074689108886716,14.32384L58.48938910888672,15.7331L55.48564910888672,15.7331L58.57282910888672,13.22776L55.73596310888672,13.22776L55.73596310888672,11.81851L58.99000910888672,11.81851L58.99000910888672,11.11388L57.98877910888672,11.11388L57.82189910888672,11.42705L55.485655474636715,11.42705L56.90407910888672,9L59.24032910888672,9L58.82312910888672,9.626335ZM55.90283510888672,16.6726L71.67244910888672,16.6726L71.67244910888672,21.0569L71.67244910888672,23.0925L55.81939910888672,23.0925L55.90283510888672,16.6726ZM58.32250910888672,18.16014L58.32250910888672,19.2562L67.91774910888672,19.2562L67.91774910888672,20.6655L58.23907910888672,20.6655L58.23907910888672,21.6833L69.25274910888672,21.6833L69.33624910888672,18.23843L58.32250910888672,18.23843L58.32250910888672,18.16014ZM64.66372910888671,15.576509999999999L64.66372910888671,9.313167L71.92274910888672,9.313167L71.92274910888672,13.61922L71.92274910888672,15.576509999999999L64.66372910888671,15.576509999999999ZM69.58654910888671,10.80071L67.16684910888672,10.80071L67.25024910888672,14.08897L69.58654910888671,14.08897L69.58654910888671,10.80071Z" fill="#003D95" fill-opacity="1"/></g></g><g><g><path d="M82.60272738037109,21.3701L82.60272738037109,23.0925L76.0946273803711,23.0925L76.0946273803711,21.3701L82.60272738037109,21.3701ZM81.68491738037109,9L78.84805738037109,13.697510000000001L79.4321073803711,13.697510000000001L80.51679738037109,11.97509L83.0199073803711,11.97509L79.3486773803711,18.473309999999998L82.5192873803711,18.473309999999998L82.5192873803711,20.274L76.26150538037109,20.274L76.26150538037109,18.5516L78.18056738037109,15.7331L76.3449473803711,15.7331L76.3449473803711,14.08897L79.6824273803711,9.0782918L81.68491738037109,9.0782918L81.68491738037109,9ZM91.28022738037109,9.782918L93.9501273803711,9.782918L93.9501273803711,11.348749999999999L91.28022738037109,11.348749999999999L91.28022738037109,13.46263L93.78332738037109,13.46263L93.78332738037109,15.02847L91.28022738037109,15.02847L91.28022738037109,17.29893L93.78332738037109,17.29893L93.78332738037109,18.86477L91.28022738037109,18.86477L91.28022738037109,21.3701L93.9501273803711,21.3701L93.9501273803711,23.014200000000002L84.10459738037109,23.014200000000002L84.10459738037109,13.07117L82.7696073803711,13.07117L84.9389673803711,9L87.8592273803711,9L87.44212738037109,9.782918L88.6102273803711,9.782918Q88.6102273803711,9.704626,88.6102273803711,9.0782918L91.3636273803711,9.0782918L91.28022738037109,9.782918ZM88.6102273803711,18.94306L86.6911273803711,18.94306L86.6911273803711,21.4484L88.6102273803711,21.4484L88.6102273803711,18.94306ZM86.60772738037109,17.29893L88.5267273803711,17.29893L88.5267273803711,15.106760000000001L86.60772738037109,15.106760000000001L86.60772738037109,17.29893ZM86.60772738037109,13.46263L88.5267273803711,13.46263L88.5267273803711,11.348749999999999L86.60772738037109,11.348749999999999L86.60772738037109,13.46263Z" fill="#003D95" fill-opacity="1"/></g></g><g><g><path d="M8.594033686523437,19.49108363699913Q8.677470686523437,19.41278363699913,8.844344686523437,19.17798363699913L18.940303686523436,9.54804263699913Q19.274003686523436,9.15658363699913,20.024903686523437,9.15658363699913Q20.692403686523438,9.15658363699913,30.454603686523438,9.15658363699913Q30.621403686523436,9.15658363699913,30.704903686523437,9.31316763699913C30.788303686523438,9.46975063699913,30.621403686523436,9.54804263699913,30.53800368652344,9.70462663699913Q30.371103686523437,9.78291863699913,20.191803686523436,19.33448363699913Q18.773403686523437,17.76868363699913,18.272763686523437,15.02847363699913C17.855573686523435,12.67971363699913,19.107103686523438,9.70462663699913,19.274003686523436,9.39145863699913Q17.855573686523435,11.50533363699913,17.605263686523436,13.306053636999131C17.354953686523437,15.18505363699913,17.855573686523435,18.47331363699913,19.858103686523435,20.50888363699913Q21.86060368652344,22.544483636999132,30.371103686523437,30.45198363699913Q30.53800368652344,30.53028363699913,30.454603686523438,30.76508363699913C30.454603686523438,30.843383636999132,30.287703686523436,30.92168363699913,30.120803686523438,30.92168363699913L19.94150368652344,30.92168363699913Q19.274003686523436,30.92168363699913,18.773403686523437,30.45198363699913L8.677470686523437,20.74378363699913Q8.176847686523438,20.195683636999128,8.594033686523437,19.49108363699913Z" fill="#DE0515" fill-opacity="1"/></g></g><g><g><path d="M20.19175764038086,19.334491594982147Q18.43957564038086,17.298931594982147,18.18926654038086,14.167261594982147C18.10582914038086,13.149461594982148,18.52301464038086,10.800711594982147,19.27394764038086,9.234875594982148Q19.52425764038086,9.156583394982148,19.85800764038086,9.078291594982147L21.27643764038086,9.078291594982147L30.45453764038086,9.078291594982147Q30.70483764038086,9.156583394982148,30.70483764038086,9.391458594982147Q30.70483764038086,9.469750594982147,30.53793764038086,9.626334594982147Q30.53793764038086,9.704626594982146,20.19175764038086,19.334491594982147Z" fill="url(#master_svg0_5_44160)" fill-opacity="1"/></g></g><g><g><path d="M0.834371,10.957291825950145Q2.83686,11.035591825950146,4.25529,10.722421825950146C4.67248,10.565831825950145,6.17435,10.252671825950145,7.34246,9.234875825950146Q7.50934,9.078291825950146,7.67621,9.078291825950146L10.5965,9.078291825950146Q10.7634,9.078291825950146,10.8468,9.156583625950146Q11.0137,9.313166825950146,11.0137,9.391458825950146Q11.0137,9.548042825950146,11.0137,15.811391825950146L7.4259,19.177891825950148Q7.09215,19.569391825950145,7.09215,19.960891825950146C7.09215,20.430591825950145,7.17559,20.587191825950146,7.50934,20.900391825950145Q7.84309,21.213491825950143,10.9303,24.188591825950148L10.9303,27.320291825950147Q10.9303,28.494691825950145,11.6812,29.042691825950147C11.7646,29.120991825950146,12.4321,29.668991825950144,14.1843,29.668991825950144L15.1021,29.668991825950144Q15.3524,29.590791825950145,15.3524,29.903891825950147Q15.3524,30.138791825950147,15.3524,30.921691825950145L0,30.921691825950145L0,29.668991825950144Q1.5853,29.747291825950146,2.16936,29.668991825950144Q2.66999,29.668991825950144,3.17061,29.512491825950146C3.67123,29.355891825950145,4.00498,29.120991825950146,4.25529,28.572991825950147C4.33873,28.338091825950144,4.5056,27.868291825950145,4.5056,27.007091825950145Q4.5056,26.145891825950144,4.5056,21.213491825950143L4.5056,14.010671825950146Q4.5056,13.149471825950146,4.00498,12.836301825950146C3.50436,12.366551825950147,2.9203,12.209961825950145,1.25156,12.288251825950146L0.750934,12.288251825950146L0.750934,10.957291825950145L0.834371,10.957291825950145Z" fill="#DE0515" fill-opacity="1"/></g></g><g><g><path d="M36.87920201293945,28.65124376098633L35.79452201293945,28.65124376098633L35.79452201293945,30.92171376098633L34.12578201293945,30.92171376098633L34.12578201293945,25.049823760986328L35.79452201293945,25.049823760986328L35.79452201293945,27.24199376098633L36.87920201293945,27.24199376098633L38.71482201293945,25.049823760986328L40.38356201293945,25.049823760986328L38.21420201293945,27.946623760986327L40.38356201293945,30.92171376098633L38.71482201293945,30.92171376098633L36.87920201293945,28.65124376098633Z" fill="#003D95" fill-opacity="1"/></g></g><g><g><path d="M42.719803537597656,30.921704700317385L41.051063537597656,30.921704700317385L41.051063537597656,25.128114700317383L42.719803537597656,25.128114700317383L42.719803537597656,28.729534700317384L42.719803537597656,30.921704700317385Z" fill="#003D95" fill-opacity="1"/></g></g><g><g><path d="M49.64508239868164,30.921705639648437L47.72603239868164,30.921705639648437L47.72603239868164,27.32028563964844C47.72603239868164,27.007115639648436,47.72603239868164,26.77224563964844,47.55915239868164,26.693945639648437C47.47573239868164,26.53736563964844,47.392282398681644,26.459075639648436,46.89166239868164,26.459075639648436L46.14072239868164,26.459075639648436C45.723542398681644,26.459075639648436,45.55666239868164,26.53736563964844,45.38979239868164,26.693945639648437C45.22292239868164,26.850535639648438,45.22292239868164,27.08540563964844,45.22292239868164,27.39857563964844L45.22292239868164,30.99999563964844L43.38730239868164,30.99999563964844L43.38730239868164,26.850535639648438Q43.38730239868164,26.302495639648438,43.38730239868164,25.206405639648438L45.22292239868164,25.206405639648438L45.22292239868164,25.441280639648436Q45.38979239868164,25.206405639648438,46.22416239868164,25.206405639648438L47.14197239868164,25.206405639648438C47.89290239868164,25.206405639648438,48.47696239868164,25.284697739648436,48.89415239868164,25.59786463964844C49.22790239868164,25.832739639648437,49.56164239868164,26.302495639648438,49.56164239868164,26.850535639648438L49.56164239868164,30.921705639648437L49.64508239868164,30.921705639648437Z" fill="#003D95" fill-opacity="1"/></g></g><g><g><path d="M56.57034846435547,30.921704700317385L54.985028464355466,30.921704700317385L54.985028464355466,30.686834700317384Q54.48441846435547,30.765124700317383,53.90034846435547,30.765124700317383C53.316288464355466,30.765124700317383,52.64878846435547,30.765124700317383,52.31503846435547,30.765124700317383C51.56410846435547,30.765124700317383,51.06348446435547,30.60854470031738,50.81317446435547,30.373664700317384C50.562863464355466,30.060494700317385,50.39598846435547,29.825624700317384,50.39598846435547,29.277584700317384L50.39598846435547,26.772244700317383C50.39598846435547,26.224204700317383,50.562863464355466,25.754449700317384,50.81317446435547,25.519573700317384C51.06348446435547,25.20640680031738,51.56410846435547,25.128114700317383,52.31503846435547,25.128114700317383L54.73471846435547,25.128114700317383L56.57034846435547,25.128114700317383L56.57034846435547,26.459074700317384L54.901598464355466,26.459074700317384L53.90035846435547,26.459074700317384L52.98254846435547,26.459074700317384C52.56535846435547,26.459074700317384,52.31504846435547,26.537364700317383,52.14817846435547,26.693954700317384C51.98129846435547,26.850534700317382,51.98129846435547,27.085414700317383,51.98129846435547,27.398574700317383L51.98129846435547,28.729534700317384C51.98129846435547,29.042704700317383,52.06473846435547,29.042704700317383,52.14817846435547,29.19929470031738C52.31504846435547,29.355874700317383,52.56535846435547,29.434164700317382,52.98254846435547,29.434164700317382Q53.65004846435547,29.434164700317382,53.90035846435547,29.434164700317382Q54.317538464355465,29.434164700317382,54.901598464355466,29.277584700317384L54.901598464355466,27.79003470031738L56.57034846435547,27.79003470031738L56.57034846435547,30.921704700317385Z" fill="#003D95" fill-opacity="1"/></g></g><g><g><path d="M58.0722126184082,25.284698760986327C58.3225276184082,25.049823760986328,58.8231476184082,25.049823760986328,59.240337618408205,25.049823760986328L63.8293776184082,25.049823760986328L63.8293776184082,25.676157760986328Q63.8293776184082,26.06761376098633,63.662507618408206,26.302493760986327Q63.4956376184082,26.45907376098633,62.911567618408206,26.45907376098633L62.577817618408204,26.45907376098633L59.4072076184082,26.45907376098633C59.323767618408205,26.45907376098633,59.240337618408205,26.45907376098633,59.240337618408205,26.61566376098633C59.240337618408205,26.69395376098633,59.240337618408205,26.772243760986328,59.323767618408205,26.772243760986328L63.161877618408205,28.41637376098633C63.4956276184082,28.65124376098633,63.745937618408206,28.807833760986327,63.745937618408206,29.121003760986326C63.8293776184082,29.43416376098633,63.8293776184082,29.590753760986328,63.745937618408206,29.82562376098633C63.662507618408206,30.06050376098633,63.5790576184082,30.29537376098633,63.3287476184082,30.530253760986326C63.078427618408206,30.765123760986327,62.911567618408206,30.92171376098633,62.4943776184082,30.92171376098633L57.4047134184082,30.92171376098633L57.4047134184082,30.217083760986327Q57.4047134184082,29.903913760986327,57.655027618408205,29.74733376098633Q57.9053416184082,29.51245376098633,58.4059576184082,29.590753760986328L61.743447618408204,29.590753760986328C61.9103176184082,29.590753760986328,61.9103176184082,29.51245376098633,61.9103176184082,29.43416376098633C61.9103176184082,29.355873760986327,61.826877618408204,29.355873760986327,61.826877618408204,29.277583760986328L58.239090618408206,27.79003376098633C57.821898618408206,27.633453760986328,57.3212776184082,27.085413760986327,57.3212776184082,26.537363760986327C57.3212776184082,26.302493760986327,57.3212776184082,26.14591376098633,57.4047134184082,26.06761376098633C57.655027618408205,25.676157760986328,57.738463618408204,25.597866760986328,58.0722126184082,25.284698760986327Z" fill="#D51522" fill-opacity="1"/></g></g><g><g><path d="M69.669982265625,30.921704700317385L66.999992265625,30.921704700317385C66.332492265625,30.921704700317385,65.831872265625,30.843414700317382,65.581572265625,30.60854470031738C65.331251265625,30.29537470031738,64.997508265625,29.903914700317383,64.997508265625,29.277584700317384L64.580322265625,25.128114700317383L66.165632265625,25.128114700317383L66.582812265625,28.729534700317384C66.582812265625,29.042704700317383,66.666252265625,29.277584700317384,66.749692265625,29.434164700317382C66.916562265625,29.590744700317384,67.000002265625,29.669044700317382,67.417182265625,29.669044700317382Q67.667502265625,29.669044700317382,67.834372265625,29.434164700317382Q67.917802265625,29.277584700317384,67.917802265625,28.964414700317384L67.917802265625,25.206405300317382L69.503112265625,25.206405300317382L69.503112265625,29.042704700317383Q69.503112265625,29.512454700317384,69.669992265625,29.590744700317384Q69.753422265625,29.669044700317382,70.087172265625,29.669044700317382C70.504362265625,29.669044700317382,70.587792265625,29.590744700317384,70.671232265625,29.434164700317382C70.754662265625,29.277584700317384,70.838102265625,29.042704700317383,70.838102265625,28.729534700317384L71.338722265625,25.20640680031738L73.007472265625,25.20640680031738L72.423402265625,29.355874700317383C72.423402265625,29.903914700317383,72.173092265625,30.373664700317384,71.922792265625,30.686834700317384C71.589032265625,30.921704700317385,71.004982265625,30.921704700317385,70.337472265625,30.921704700317385L69.669982265625,30.921704700317385Z" fill="#003D95" fill-opacity="1"/></g></g><g><g><path d="M77.26275435302735,28.96441566833496L76.92900435302734,28.96441566833496L75.76088435302735,28.96441566833496L75.42714435302734,28.96441566833496L74.92651435302734,30.92171566833496L73.25777435302734,30.92171566833496C73.92527335302735,28.25978566833496,74.42589435302735,26.928825668334962,74.42589435302735,26.77224566833496C74.50933435302734,26.45907566833496,74.67620435302734,26.067615668334962,75.00995435302734,25.67615966833496C75.34370435302735,25.28470066833496,76.01120435302734,25.04982566833496,76.34495435302735,25.04982566833496C76.67870435302734,25.04982566833496,77.42962435302735,25.28470066833496,77.76337435302734,25.67615966833496C78.09712435302734,26.067615668334962,78.26399435302734,26.45907566833496,78.34743435302734,26.77224566833496C78.43086435302735,26.85053566833496,78.93149435302735,28.25978566833496,79.59898435302735,30.92171566833496L77.93024435302735,30.92171566833496L77.26275435302735,28.96441566833496ZM76.42838435302734,27.63345566833496L77.01244435302735,27.63345566833496Q76.67870435302734,26.380785668334962,76.26151435302734,26.380785668334962Q75.84433435302735,26.380785668334962,75.59401435302735,27.63345566833496L76.42838435302734,27.63345566833496Z" fill="#003D95" fill-opacity="1"/></g></g><g><g><path d="M86.77461431152344,30.921704700317385L84.85555431152343,30.921704700317385L82.85306431152344,28.88612470031738L82.01868431152344,28.88612470031738L82.01868431152344,30.921704700317385L80.34994711152343,30.921704700317385L80.34994711152343,26.224204700317383Q80.26651131152343,25.832740700317384,80.68369631152343,25.441281700317383Q80.93401031152344,25.128114700317383,81.51806431152343,25.128114700317383L82.26901431152343,25.128114700317383L84.68868431152343,25.128114700317383C85.43962431152343,25.128114700317383,85.68992431152344,25.28469870031738,85.94024431152344,25.59786570031738C86.19055431152344,25.91103270031738,86.35742431152343,26.302494700317382,86.35742431152343,26.850534700317382L86.35742431152343,27.007114700317384L86.35742431152343,27.241994700317385C86.35742431152343,27.79003470031738,86.27399431152344,28.181494700317383,86.02367431152344,28.416374700317384C85.77335431152343,28.729534700317384,85.68992431152344,28.807834700317382,85.10587431152344,28.88612470031738L84.77212431152344,28.88612470031738L86.77461431152344,30.921704700317385ZM83.85431431152344,27.633454700317383C84.27150431152344,27.633454700317383,84.35493431152344,27.555164700317384,84.52180431152344,27.398574700317383C84.60525431152344,27.241994700317385,84.68868431152343,27.163704700317382,84.68868431152343,27.007114700317384C84.68868431152343,26.850534700317382,84.68868431152343,26.693954700317384,84.52180431152344,26.537364700317383C84.43837431152343,26.38078470031738,84.27150431152344,26.38078470031738,83.85431431152344,26.38078470031738L82.93650431152344,26.38078470031738L82.01869431152343,26.38078470031738L82.01869431152343,27.633454700317383L83.85431431152344,27.633454700317383Z" fill="#003D95" fill-opacity="1"/></g></g><g><g><path d="M89.3611597290039,28.651241853637696L88.8605297290039,28.651241853637696Q88.8605297290039,28.964411853637696,88.8605297290039,29.512451853637696Q89.44458972900391,29.512451853637696,89.8617797290039,29.512451853637696L90.6961497290039,29.512451853637696L93.8667597290039,29.512451853637696L93.8667597290039,30.921711853637696L91.4470797290039,30.921711853637696L89.1108497290039,30.921711853637696C88.3599097290039,30.921711853637696,87.94272072900391,30.765121853637694,87.6089707290039,30.451961853637695C87.27522107900391,30.138791853637695,87.27522107900391,29.434161853637697,87.27522107900391,28.886121853637697L87.27522107900391,27.163701853637697C87.27522107900391,26.615661853637697,87.19178522900391,25.989323853637696,87.6089707290039,25.519572853637694C87.8592847290039,25.206405853637694,88.3599097290039,25.049821853637695,89.1108497290039,25.049821853637695L91.53051972900391,25.049821853637695L93.95019972900391,25.049821853637695L93.95019972900391,26.380781853637696L90.7795897290039,26.380781853637696L89.94521972900391,26.380781853637696Q89.5280297290039,26.380781853637696,88.94396972900391,26.380781853637696Q88.94396972900391,26.928821853637697,88.94396972900391,27.241991853637696L89.44458972900391,27.241991853637696L93.95019972900391,27.241991853637696L93.95019972900391,28.572951853637697L89.3611597290039,28.651241853637696Z" fill="#003D95" fill-opacity="1"/></g></g><g><g><path d="M46.64132443017578,18.943060874938965L49.227873430175784,18.943060874938965L48.393503430175784,21.056940874938967L45.80695343017578,21.056940874938967L46.64132443017578,18.943060874938965Z" fill="#003D95" fill-opacity="1"/></g></g></g></g></g></svg>