<svg xmlns="http://www.w3.org/2000/svg" xmlns:xlink="http://www.w3.org/1999/xlink" fill="none" version="1.1" width="24" height="24" viewBox="0 0 24 24"><defs><clipPath id="master_svg0_3105_4101"><rect x="0" y="0" width="24" height="24" rx="0"/></clipPath><clipPath id="master_svg1_973_36712"><rect x="4" y="4" width="16" height="16" rx="0"/></clipPath></defs><g><g clip-path="url(#master_svg0_3105_4101)"></g><g clip-path="url(#master_svg1_973_36712)"><g><g><g><path d="M13,12.03300005197525L13,14.04300005197525C16.118000000000002,14.249000051975251,18,15.36100005197525,18,16.00000005197525C18,16.70500005197525,15.722,18.00000005197525,12,18.00000005197525C8.277999999999999,18.00000005197525,6,16.70500005197525,6,16.00000005197525C6,15.72500005197525,6.356,15.36100005197525,7,15.01800005197525L7,12.81800005197525C5.231,13.48300005197525,4,14.54900005197525,4,16.00000005197525C4,18.62600005197525,8.024000000000001,20.00000005197525,12,20.00000005197525C15.976,20.00000005197525,20,18.62600005197525,20,16.00000005197525C20,13.60000005197525,16.622999999999998,12.243000051975251,13,12.03300005197525Z" fill="#22C55E" fill-opacity="1"/></g><g><path d="M10,16.00003880929947C9.447715,16.00003880929947,9,15.55223880929947,9,15.000038809299468L9,5.5169998092994685C9.00151253,4.799953809299469,9.734955,4.317481809299469,10.394,4.600000009299469L16,6.999998809299469L11,9.67699880929947L11,15.000038809299468C11,15.55223880929947,10.55228,16.00003880929947,10,16.00003880929947Z" fill="#22C55E" fill-opacity="1"/></g></g></g></g></g></svg>