<svg xmlns="http://www.w3.org/2000/svg" xmlns:xlink="http://www.w3.org/1999/xlink" fill="none" version="1.1" width="24" height="24" viewBox="0 0 24 24"><defs><clipPath id="master_svg0_973_36732"><rect x="0" y="0" width="24" height="24" rx="0"/></clipPath><clipPath id="master_svg1_3105_4092"><rect x="0" y="0" width="24" height="24" rx="0"/></clipPath></defs><g clip-path="url(#master_svg0_973_36732)"><g clip-path="url(#master_svg1_3105_4092)"></g><g><g><path d="M2,2L22,2L22,22L2,22L2,2Z" fill="#FFFFFF" fill-opacity="0.009999999776482582"/></g><g><path d="M8.25,11.999751752929686L8.25,6.9479217529296875L12.625,9.473841752929687L17,11.999751752929686L12.625,14.525671752929687L8.25,17.051621752929687L8.25,11.999751752929686Z" fill="#22C55E" fill-opacity="1"/></g><g><path d="M7.585000038146973,17.051621791076663L7.585000038146973,6.94792179107666C7.585000038146973,6.58065279107666,7.882731038146972,6.28292179107666,8.250000038146972,6.28292179107666C8.366732038146973,6.28292179107666,8.481408038146972,6.31364909107666,8.582501038146972,6.37201539107666L12.957500038146971,8.89793179107666L17.332500038146975,11.423851791076661C17.650600038146973,11.60748179107666,17.759500038146975,12.01419179107666,17.575910038146972,12.332251791076661C17.517540038146972,12.43335179107666,17.433590038146974,12.51729179107666,17.332500038146975,12.57566179107666L12.957500038146971,15.10158179107666L8.582501038146972,17.62752179107666C8.264437038146973,17.81112179107666,7.857729038146973,17.70212179107666,7.674093738146973,17.38412179107666C7.615727438146973,17.28302179107666,7.585000038146973,17.16832179107666,7.585000038146973,17.051621791076663ZM12.292500038146972,13.94976179107666L8.915000038146973,15.89977179107666L8.915000038146973,8.09974179107666L12.292500038146972,10.04974179107666L15.670000038146974,11.99975179107666L12.292500038146972,13.94976179107666Z" fill-rule="evenodd" fill="#22C55E" fill-opacity="1"/></g></g></g></svg>