<svg xmlns="http://www.w3.org/2000/svg" xmlns:xlink="http://www.w3.org/1999/xlink" fill="none" version="1.1" width="24" height="24" viewBox="0 0 24 24"><defs><clipPath id="master_svg0_973_36726"><rect x="0" y="0" width="24" height="24" rx="0"/></clipPath><clipPath id="master_svg1_3105_4095"><rect x="0" y="0" width="24" height="24" rx="0"/></clipPath></defs><g clip-path="url(#master_svg0_973_36726)"><g clip-path="url(#master_svg1_3105_4095)"></g><g><g><path d="M2,2L22,2L22,22L2,22L2,2Z" fill="#FFFFFF" fill-opacity="0.009999999776482582"/></g><g><path d="M9.083335876464844,6.999998247070312L12.000005876464844,4.0833282470703125L14.916665876464844,6.999998247070312L12.000005876464844,9.916658247070313L9.083335876464844,6.999998247070312Z" fill="#2882FF" fill-opacity="1"/></g><g><path d="M11.528599368743897,10.388061500930785L8.611931368743896,7.471401500930786C8.351581968743897,7.211051500930786,8.351581968743897,6.788941500930786,8.611931368743896,6.528591500930786L11.528599368743897,3.611923500930786C11.788949368743896,3.3515741009307862,12.211059368743896,3.3515741009307862,12.471409368743895,3.611923500930786L15.388069368743896,6.528591500930786C15.648419368743896,6.788941500930786,15.648419368743896,7.211051500930786,15.388069368743896,7.471401500930786L12.471409368743895,10.388061500930785C12.211059368743896,10.648411500930786,11.788949368743896,10.648411500930786,11.528599368743897,10.388061500930785ZM13.973859368743897,6.999991500930786L11.999999368743897,8.973851500930786L10.026149368743896,6.999991500930786L11.999999368743897,5.026141500930786L13.973859368743897,6.999991500930786Z" fill-rule="evenodd" fill="#2882FF" fill-opacity="1"/></g><g><path d="M9.083335876464844,16.999998247070312L12.000005876464844,14.083328247070312L14.916665876464844,16.999998247070312L12.000005876464844,19.916658247070313L9.083335876464844,16.999998247070312Z" fill="#2882FF" fill-opacity="1"/></g><g><path d="M11.528599368743897,20.388061262512206L8.611931368743896,17.471401262512206C8.351581968743897,17.211051262512207,8.351581968743897,16.788941262512207,8.611931368743896,16.528591262512208L11.528599368743897,13.611923262512207C11.788949368743896,13.351573862512208,12.211059368743896,13.351573862512208,12.471409368743895,13.611923262512207L15.388069368743896,16.528591262512208C15.648419368743896,16.788941262512207,15.648419368743896,17.211051262512207,15.388069368743896,17.471401262512206L12.471409368743895,20.388061262512206C12.211059368743896,20.648411262512205,11.788949368743896,20.648411262512205,11.528599368743897,20.388061262512206ZM13.973859368743897,16.999991262512207L11.999999368743897,18.973851262512206L10.026149368743896,16.999991262512207L11.999999368743897,15.026141262512207L13.973859368743897,16.999991262512207Z" fill-rule="evenodd" fill="#2882FF" fill-opacity="1"/></g><g><path d="M14.083335876464844,11.999998247070312L17.000005876464844,9.083328247070312L19.916665876464844,11.999998247070312L17.000005876464844,14.916658247070313L14.083335876464844,11.999998247070312Z" fill="#2882FF" fill-opacity="1"/></g><g><path d="M16.52859889190674,15.388061739349364L13.611930891906738,12.471401739349364C13.351581491906739,12.211051739349365,13.351581491906739,11.788941739349365,13.611930891906738,11.528591739349366L16.52859889190674,8.611923739349365C16.78894889190674,8.351574339349366,17.211058891906738,8.351574339349366,17.471408891906737,8.611923739349365L20.388068891906737,11.528591739349366C20.648418891906736,11.788941739349365,20.648418891906736,12.211051739349365,20.388068891906737,12.471401739349364L17.471408891906737,15.388061739349364C17.211058891906738,15.648411739349365,16.78894889190674,15.648411739349365,16.52859889190674,15.388061739349364ZM18.973858891906737,11.999991739349365L16.99999889190674,13.973851739349366L15.026148891906738,11.999991739349365L16.99999889190674,10.026141739349365L18.973858891906737,11.999991739349365Z" fill-rule="evenodd" fill="#2882FF" fill-opacity="1"/></g><g><path d="M4.083335876464844,11.999998247070312L7.000005876464844,9.083328247070312L9.916665876464844,11.999998247070312L7.000005876464844,14.916658247070313L4.083335876464844,11.999998247070312Z" fill="#2882FF" fill-opacity="1"/></g><g><path d="M6.5285991303253175,15.388061739349364L3.6119311303253174,12.471401739349364C3.3515817303253175,12.211051739349365,3.3515817303253175,11.788941739349365,3.6119311303253174,11.528591739349366L6.5285991303253175,8.611923739349365C6.788949130325317,8.351574339349366,7.211059130325317,8.351574339349366,7.471409130325317,8.611923739349365L10.388069130325317,11.528591739349366C10.648419130325317,11.788941739349365,10.648419130325317,12.211051739349365,10.388069130325317,12.471401739349364L7.471409130325317,15.388061739349364C7.211059130325317,15.648411739349365,6.788949130325317,15.648411739349365,6.5285991303253175,15.388061739349364ZM8.973859130325318,11.999991739349365L6.9999991303253175,13.973851739349366L5.026149130325317,11.999991739349365L6.9999991303253175,10.026141739349365L8.973859130325318,11.999991739349365Z" fill-rule="evenodd" fill="#2882FF" fill-opacity="1"/></g></g></g></svg>